<svg aria-hidden="true" style="width:0;height:0;position:absolute;overflow:hidden" xmlns="http://www.w3.org/2000/svg"><defs><symbol id="heart" viewBox="0 0 34 32"><path fill="#ff6b08" style="fill:var(--color1,#ff6b08)" d="m17.231 31.705-2.412-2.412C5.859 21.367.001 16.025.001 9.478.001 4.136 4.136.001 9.478.001c2.929 0 5.858 1.378 7.754 3.618 1.895-2.24 4.825-3.618 7.754-3.618 5.342 0 9.477 4.135 9.477 9.477 0 6.548-5.858 11.889-14.818 19.815l-2.412 2.412z"/></symbol><symbol id="logo" viewBox="0 0 32 32"><path fill="none" stroke="#fff" style="stroke:var(--color2,#fff)" stroke-linejoin="round" stroke-linecap="round" stroke-width="2.667" d="M26.427 2.667H5.574a2.907 2.907 0 0 0-2.907 2.907v20.853a2.907 2.907 0 0 0 2.907 2.907v0h20.853a2.907 2.907 0 0 0 2.907-2.907v0V5.574a2.907 2.907 0 0 0-2.907-2.907v0zm-17.094 0v26.667M22.667 2.667v26.667M2.667 16h26.667M2.667 9.333h6.667M2.667 22.667h6.667m13.333 0h6.667M22.667 9.333h6.667"/></symbol><symbol id="search" viewBox="0 0 32 32"><path fill="none" stroke="#fff" style="stroke:var(--color2,#fff)" stroke-linejoin="round" stroke-linecap="round" stroke-width="2.667" d="M14.667 25.333c5.891 0 10.667-4.776 10.667-10.667S20.558 3.999 14.667 3.999v0C8.776 3.999 4 8.775 4 14.666s4.776 10.667 10.667 10.667v0zM28 28l-5.8-5.8"/></symbol><symbol id="icon-close-btn" viewBox="0 0 32 32"><path d="m26.667 7.303-1.97-1.97-7.808 7.808-7.808-7.808-1.97 1.97 7.808 7.808-7.808 7.808 1.97 1.97 7.808-7.808 7.808 7.808 1.97-1.97-7.808-7.808 7.808-7.808z"/></symbol><symbol id="google" viewBox="0 0 49 49"><path fill="#FFC107" d="M43.611 20.083H42V20H24v8h11.303c-1.649 4.657-6.08 8-11.303 8-6.627 0-12-5.373-12-12s5.373-12 12-12c3.059 0 5.842 1.154 7.961 3.039l5.657-5.657C34.046 6.053 29.268 4 24 4 12.955 4 4 12.955 4 24s8.955 20 20 20 20-8.955 20-20c0-1.341-.138-2.65-.389-3.917z"/><path fill="#FF3D00" d="m6.306 14.691 6.571 4.819C14.655 15.108 18.961 12 24 12c3.059 0 5.842 1.154 7.961 3.039l5.657-5.657C34.046 6.053 29.268 4 24 4 16.318 4 9.656 8.337 6.306 14.691z"/><path fill="#4CAF50" d="M24 44c5.166 0 9.86-1.977 13.409-5.192l-6.19-5.238A11.91 11.91 0 0 1 24 36c-5.202 0-9.619-3.317-11.283-7.946l-6.522 5.025C9.505 39.556 16.227 44 24 44z"/><path fill="#1976D2" d="M43.611 20.083H42V20H24v8h11.303a12.04 12.04 0 0 1-4.087 5.571l.003-.002 6.19 5.238C36.971 39.205 44 34 44 24c0-1.341-.138-2.65-.389-3.917z"/></symbol><symbol id="icon-enter" viewBox="0 0 32 32"><path d="M12 16H2v-4h10V8l6 6-6 6zM32 0v26l-12 6v-6H8v-8h2v6h10V6l8-4H10v8H8V0z"/><symbol id="close" viewBox="0 0 32 32"><path d="M32 3.223 28.777 0 16 12.777 3.223 0 0 3.223 12.777 16 0 28.777 3.223 32 16 19.223 28.777 32 32 28.777 19.223 16 32 3.223z"/></symbol><symbol id="icon-arrow-right" viewBox="0 0 32 32"><path stroke-linejoin="round" stroke-linecap="round" stroke-width="2.667" d="M25.333 16H6.666M16 25.334l-9.333-9.333L16 6.668"/></symbol><symbol id="icon-arrow-left" viewBox="0 0 32 32"><path stroke-linejoin="round" stroke-linecap="round" stroke-width="2.667" d="M6.667 16h18.667M16 25.334l9.333-9.333L16 6.668"/></symbol><symbol id="sun" viewBox="0 0 512 512"><circle style="fill:#ffd347" cx="255.997" cy="255.997" r="144.824"/><path style="fill:#ffd347" d="M256 56.849a7.736 7.736 0 0 1-7.737-7.737V7.737C248.263 3.463 251.727 0 256 0s7.737 3.463 7.737 7.737v41.376A7.736 7.736 0 0 1 256 56.849zM152.563 84.568a7.732 7.732 0 0 1-6.707-3.869l-20.687-35.832a7.737 7.737 0 0 1 13.401-7.737l20.687 35.832a7.737 7.737 0 0 1-6.694 11.606zM76.823 160.294a7.696 7.696 0 0 1-3.861-1.038L37.13 138.569a7.738 7.738 0 0 1 7.737-13.401l35.832 20.687a7.738 7.738 0 0 1-3.876 14.439zM49.112 263.737H7.737C3.464 263.737 0 260.274 0 256s3.464-7.737 7.737-7.737h41.376a7.737 7.737 0 1 1-.001 15.474zM41.005 387.869a7.737 7.737 0 0 1-3.875-14.438l35.832-20.687a7.738 7.738 0 0 1 7.737 13.401l-35.832 20.687a7.71 7.71 0 0 1-3.862 1.037zM131.862 478.74a7.738 7.738 0 0 1-6.693-11.607l20.687-35.832a7.738 7.738 0 0 1 13.401 7.737L138.57 474.87a7.736 7.736 0 0 1-6.708 3.87zM256 512a7.736 7.736 0 0 1-7.737-7.737v-41.376c0-4.274 3.464-7.737 7.737-7.737s7.737 3.463 7.737 7.737v41.376A7.736 7.736 0 0 1 256 512zM380.138 478.74a7.732 7.732 0 0 1-6.707-3.869l-20.687-35.832a7.737 7.737 0 0 1 13.401-7.737l20.687 35.832a7.737 7.737 0 0 1-6.694 11.606zM470.995 387.869a7.696 7.696 0 0 1-3.861-1.038l-35.832-20.687a7.738 7.738 0 0 1 7.737-13.401l35.832 20.687a7.738 7.738 0 0 1-3.876 14.439zM504.263 263.737h-41.376c-4.273 0-7.737-3.463-7.737-7.737s3.464-7.737 7.737-7.737h41.376c4.273 0 7.737 3.463 7.737 7.737s-3.464 7.737-7.737 7.737zM435.177 160.294a7.737 7.737 0 0 1-3.875-14.438l35.832-20.687a7.738 7.738 0 0 1 7.737 13.401l-35.832 20.687a7.71 7.71 0 0 1-3.862 1.037zM359.437 84.568a7.738 7.738 0 0 1-6.693-11.607l20.687-35.832a7.738 7.738 0 0 1 13.401 7.737l-20.687 35.832a7.735 7.735 0 0 1-6.708 3.87z"/><path style="fill:#ffbe31" d="M256 111.18c-5.242 0-10.418.286-15.516.828 72.685 7.743 129.303 69.252 129.303 143.991s-56.619 136.249-129.303 143.992c5.098.544 10.273.828 15.516.828 79.982 0 144.82-64.838 144.82-144.82S335.983 111.18 256 111.18z"/></symbol><symbol id="moon" viewBox="0 0 512 512"><path style="fill:#ffd93b" d="M146.88 375.528c126.272 0 228.624-102.368 228.624-228.64 0-55.952-20.16-107.136-53.52-146.88C425.056 33.096 499.696 129.64 499.696 243.704c0 141.392-114.608 256-256 256-114.064 0-210.608-74.64-243.696-177.712 39.744 33.376 90.944 53.536 146.88 53.536z"/><path style="fill:#f4c534" d="M401.92 42.776c34.24 43.504 54.816 98.272 54.816 157.952 0 141.392-114.608 256-256 256-59.68 0-114.448-20.576-157.952-54.816 46.848 59.472 119.344 97.792 200.928 97.792 141.392 0 256-114.608 256-256 0-81.584-38.32-154.064-97.792-200.928z"/><path style="fill:#ffd83b" d="m128.128 99.944 26.368 53.456 58.976 8.56-42.672 41.6 10.064 58.736-52.736-27.728-52.752 27.728L85.44 203.56l-42.672-41.6 58.976-8.56zM276.864 82.84l13.664 27.712 30.576 4.432-22.128 21.568 5.232 30.432-27.344-14.368-27.344 14.368 5.232-30.432-22.128-21.568 30.576-4.432z"/></symbol></symbol></defs></svg>