<svg version="1.0" xmlns="http://www.w3.org/2000/svg" width="1066.667" height="800" viewBox="0 0 800 600"><path d="M457.1 86.9c-.6 1.1-1.1 7.8-1.1 15.4 0 10.7.3 13.7 1.5 14.7.8.7 2.2 1 3 .6 1.2-.4 1.5-2.4 1.5-9.3v-8.8l4.6 8c7 12.1 10.1 14.8 12.3 10.7 1.5-2.9 3.3-16.4 2.9-23.2-.3-5.9-.5-6.5-2.5-6.8-2.1-.3-2.3.1-2.3 4 0 7.1-1.2 17.8-2 17.8-.5 0-3.7-5.5-7.1-12.3-6.5-12.4-8.8-14.7-10.8-10.8zm85.4 2.7c-1.3 1.3-1.5 2.7-1.1 5.3.3 2 .9 7.8 1.3 12.9.7 10.2 2.1 13.4 5 11.6 1.5-1 1.7-2.2 1.5-7.8l-.4-6.7 5.4.3 5.3.3.5 4.9c.6 5.6 3 8.1 5.4 5.6 1.3-1.3 1.3-3.1-.2-14.5-1.6-12-1.9-13-3.9-13.3-2.5-.4-3.8 2.8-3.1 7.7.4 2.8.3 2.9-4.6 3.5-2.7.3-5.1.4-5.3.2-.2-.1-.7-2.4-1.2-5-1.1-6-2.3-7.3-4.6-5zm-52 1.8c-4.4 4.4-6 17.1-3 24.2 2.9 7.1 11.3 7.5 17.1.9 8.4-9.5 5.6-22.7-5.5-26.4-4.8-1.6-5.9-1.4-8.6 1.3zM498 96c.5 0 1.8 1 3 2.2 2.7 3 2.6 8.6-.3 12.9-4.4 6.6-8.7 4.3-8.7-4.6 0-6.7 1.7-11.8 3.7-11.1.8.3 1.9.6 2.3.6zm23.8-6.3c-7.6.4-10.7 2.5-7.3 4.9 1 .8 2.9 1.4 4.1 1.4 2 0 2.2.5 2.6 10.6.4 8 .9 10.9 2.1 12.2 1.5 1.4 1.9 1.4 3.1.2 1.1-1.2 1.3-2.5.6-6-.5-2.5-.9-7.3-1-10.6 0-6.5.6-7.4 5.1-7.4 1.1 0 2.2-.7 2.5-1.5.8-1.9-1.4-4.6-3.5-4.3-.9.1-4.6.3-8.3.5zm107.9 1.1c-2.7 3-3.7 7.1-3.7 15.6 0 7 .3 8.8 2.1 11 2.9 3.7 6.5 5 10.1 3.5 5.7-2.4 9.1-12.6 4.9-14.9-4.6-2.4-10.1-.6-10.1 3.2 0 1.8.9 2.2 4.3 1.8 1.6-.1 1.7.2.7 1.9-1.3 2.5-4.5 2.8-5.4.5-1-2.6-.7-14.4.4-16.5 1.4-2.5 3.6-2.4 5.2.1 1.8 2.8 3.8 2.5 3.8-.5 0-5.8-8.6-9.8-12.3-5.7zm-55.3.3c-.6 1.1.2 16.5 1.3 22.7.7 4.1 3.5 5.9 5.8 3.6.8-.9 1.3-2.4 1-3.4-.3-1-1-6.3-1.4-11.8-.5-5.6-1.2-10.6-1.6-11.1-.8-1.4-4.2-1.4-5.1 0zm38.8 1.1c-.6.6-1.2 2.8-1.2 4.7 0 5.3-1.1 11.1-2.1 11.1-.5 0-2.3-2.8-4-6.3-3.9-7.7-5.6-9.7-8.4-9.7-3 0-3.2.8-4.1 13.4-.5 7.6-.4 10.6.5 10.7.6.1 1.7.2 2.4.3.7.1 1.6-2.2 2.2-5.9l1.1-6 3.1 5.6c3.8 6.7 5.4 8.1 8.9 7.7 2.4-.3 3.1-1.1 4.7-5.8 1.2-3.3 2-8.5 2.1-13 .1-6.8-.1-7.5-1.9-7.8-1.1-.1-2.6.3-3.3 1zm-325.9 32.4c-.8 2.2 1 4.9 3.2 4.9 1 0 2.2-.7 2.8-1.6 1.5-2.4.1-4.9-2.8-4.9-1.5 0-2.8.7-3.2 1.6zm345.7.4c-6.3.4-28.1 1.2-48.5 1.8-20.3.7-49.4 1.7-64.5 2.2-15.1.6-36.1 1-46.7 1-10.5 0-19.8.3-20.7.6-2.2.9-2 4.1.4 5.4 3.5 1.9 22.8 2.3 50.5 1.1 14.9-.7 45.9-1.6 69-2.2 75.1-1.9 77.5-2.1 77.5-6.5 0-1.2-3.9-4.6-5-4.2-.3.1-5.7.5-12 .8zm-265.4 16.4c-.4 1.5-1.4 2.6-2.8 2.8-3.1.4-3.4 2.6-.4 3.9 1.4.7 2.6 1.8 2.6 2.5 0 2.4 2.5 2.1 5.2-.7 2.4-2.4 2.6-3 1.4-4.2-.8-.7-1.6-2.5-1.8-3.8-.4-3.3-3.4-3.7-4.2-.5zm181.7 7.8c-2.1 2.3-2.3 3.3-2.3 15.5 0 11.3.2 13.2 1.8 14.6 2.5 2.3 12.4 2.3 14.6.1 3.1-3.1.9-5.4-5.1-5.4-3.7 0-4.3-.3-4.9-2.5-1-4.2.1-5.7 3.8-5 4.4.8 7.8-1.5 6.2-4.2-.8-1.2-2.6-1.9-5.8-2.1-4.5-.3-4.6-.4-4.6-3.8 0-3.3.1-3.4 4-3.4 2.8 0 4.3-.5 4.7-1.6.8-2.3-1-3.6-5.9-4.1-3.6-.4-4.7-.1-6.5 1.9zm99.6 2.5-3.2 2.7.6 10.7c.6 11.4 1.8 15.2 4.5 14.7 1.3-.3 1.7-1.5 1.7-5.6-.1-2.8.2-5.2.5-5.2s2.2 2.7 4.3 6.1c2.6 4.1 4.3 5.9 5.5 5.7 2.9-.6 2.4-3.2-1.8-9.7-3.8-5.8-3.9-6.4-2.5-8.4 1.8-2.6 1.9-7 .4-10-2.4-4.5-5.4-4.8-10-1zm5.1 5.7c0 .8-.7 1.9-1.5 2.6-1.3 1-1.5.9-1.5-1.2 0-1.4.3-2.8.6-3.1.9-.9 2.4.2 2.4 1.7zm-151.6-5.5c-3.6 2.2-5 6.1-3.3 9.4.7 1.2 3.1 4.3 5.5 6.9 5.8 6.2 5.7 7.4-.8 8.5-4.8.7-5.3 1.1-5.3 3.3 0 2.2.5 2.5 4.4 2.8 8.6.6 13.1-2.2 13.1-8.2 0-2.8-1.1-4.8-5.5-9.8-6-6.8-6-6.8.1-10.4 1.6-1 1.7-1.3.5-2.8-1.8-2.1-4.9-2-8.7.3zm22.5.2c-2.1 2.1-2.1 2.9-1.6 14.1.3 7.1 1 12.5 1.7 13.3 1.6 2 12.3 2.1 13.9.1 2.2-2.6.2-4.6-4.5-4.6-2.8 0-4.4-.4-4.4-1.3 0-.6-.3-2.2-.6-3.5-.6-2-.3-2.2 3.4-2.2 2.8 0 4.2-.5 4.6-1.6 1-2.5-1.2-4.4-5-4.4-3.1 0-3.4-.3-3.4-3 0-2.8.2-3 3.9-3 4.2 0 6.5-1.8 5.5-4.4-1-2.6-10.8-2.2-13.5.5zm146.2.3c-2.1 2.3-2.3 3.1-1.9 13 .3 9.2.6 10.8 2.5 12.7 1.8 1.9 2.8 2.1 7.6 1.5 6.1-.8 8.2-2.4 7.2-5.6-.6-1.9-1.3-2.1-5.3-1.8-4.2.3-4.7.1-5-2-.3-2 .1-2.2 3.8-2.2 3.7 0 4.1-.2 3.8-2.3-.2-1.8-1-2.3-4-2.5-3.3-.3-3.8-.7-3.8-2.8 0-1.3-.1-2.7-.2-3.2-.2-.4 1.7-.9 4.2-1.2 4-.4 4.5-.8 4.5-3 0-2.3-.4-2.5-5.5-2.8-4.8-.2-5.9 0-7.9 2.2zm-45.5 2.6c-3.3 8.2-1.5 20.4 3.3 23 2.8 1.5 9.7 1.2 11-.4 2.1-2.5.2-4.6-4-4.6-2.8 0-4.1-.5-4.9-1.9-1.7-3.3-1.2-4.1 2.9-4.1 2.7 0 4.1-.5 4.5-1.6 1-2.5-1.2-4.4-5-4.4-3 0-3.4-.3-3.4-2.5s.4-2.5 3.3-2.5c1.8 0 3.8-.5 4.5-1.2 2-2-.6-3.8-5.8-3.8-4.6 0-4.8.1-6.4 4zm-15.6-.1c-.5 1.1-1 3.6-1 5.5 0 3.1-.3 3.6-2.2 3.6-1.3 0-3.3.3-4.5.6-2 .6-2.2.2-2.5-4.7-.3-4.6-.6-5.4-2.3-5.4-1.9 0-2 .8-2.3 11.3-.2 9.4 0 11.3 1.3 11.8 2.5 1 4.7-1.6 4.1-4.8-.5-2.7-.4-2.8 3.8-2.8 4.3 0 4.3 0 5.2 4.2.8 3.7 1.3 4.3 3.4 4.3h2.5l-.3-11c-.2-6.1-.6-11.8-.8-12.8-.7-2.3-3.1-2.2-4.4.2zm-188.9 2c-5.4.4-7.7 1.1-8.4 2.3-1.8 2.7.9 4.8 6 4.8h4.4l-.2 10.2c-.2 10.7.7 12.9 4.5 11.5 1.3-.5 1.6-2.3 1.6-11.1v-10.5l4.1-.3c4.9-.3 7.1-2.7 5.3-5.6-1.2-1.9-5.4-2.2-17.3-1.3zm26.5 1.4c-2.6 2.1-3 3.2-3.4 9-.5 8.1 1.7 14.5 6.5 18.7 4.9 4.3 8.9 3.7 11.8-2 1.9-3.7 2-14.9.1-19.3-3.2-7.5-10.1-10.4-15-6.4zm7 6c2 1.8 2.8 3.5 3.2 7.5.9 10.3-2 13.5-5.7 5.9-2.2-4.5-3-15.7-1.2-15.7.6 0 2.2 1 3.7 2.3zM270 163.2c-23.8 1.7-47.9 9.7-68 22.6-18.9 12.1-35 36.4-42.1 63.7-3 11.8-3.8 35.4-1.4 46.1 4.1 18.4 16.2 37.9 31.6 51 12.9 10.8 31.1 19.5 46.1 21.9 3.5.5 4 1.1 7.9 8.8 2.2 4.5 5 9.7 6.1 11.4l2 3.3h-8.5c-10 0-11.7.5-11.7 3.4 0 5.6 2.1 9.6 6 11.6 5.3 2.7 14 4.8 21.9 5.3 6.1.5 6.6.7 9.3 4.3 1.6 2.2 7.9 9.1 14.1 15.4 25.2 25.7 69.7 49.6 111.7 59.9 43.6 10.6 84.9 7.2 122.1-10.1 4.9-2.2 9-3.9 9.2-3.7.1.2 2.8 3.3 5.8 6.9 3.1 3.6 5.8 7.3 6.2 8.3.4.9 1.3 2 2.1 2.3 2.3.9 9.4-1.5 11.7-3.9 1.9-2 2-3 1.5-9.2-.5-6.2-2.2-14-4-18.5-.4-1 1-2.7 4.1-5 7.1-5.2 18.1-15.9 18.8-18.1.8-2.4 4.5-2.5 18.1-.3 5.4.8 12.4 1.8 15.6 2.1 5.5.6 5.6.5 7.2-2.6.9-1.7 1.7-4.6 1.7-6.4.2-6.8-13.1-33.6-23.6-47.6-3.9-5.3-10.5-14.1-14.5-19.5l-7.4-9.9 3.2-6.2c2.3-4.4 6.4-9.2 13.9-16.6 16.8-16.5 18-17.9 24.8-27.9 11.4-16.9 20.5-39 20.5-49.5 0-5.5-2.2-8.5-6.4-8.5s-5 1-7 8.7c-2.3 9.2-6.7 18.3-14 28.7-9.3 13.4-15.7 20-26 26.9-10.7 7.1-23.8 19.9-25.6 24.9l-1.3 3.5-4.4-3.3c-6.1-4.6-16.9-10.9-23.1-13.3-4.8-1.9-19-5.4-32.2-8-10.4-2-42.5-6-65.5-8.1-12.6-1.1-28.6-3.2-35.5-4.7-6.9-1.4-13.8-2.8-15.3-3.1-2.4-.4-2.8-.8-2.3-2.6 11.8-41.1 9.2-65.7-10.1-94.8-8.4-12.8-26.3-27.1-41.8-33.5-5.1-2.2-25.7-5.9-35.5-6.5-3-.2-10.2 0-16 .4zm32.9 7.3c20.1 4.1 34.9 12.1 48.2 26.2 11.7 12.4 20.1 28.6 23.5 45 2.8 13.2.7 38.9-4.2 52.3-.3.8-2.1-2.4-4.4-7.6-6.2-14.5-10.9-22.7-18.1-31.4-3.6-4.4-3.7-4.7-3.6-12.5.1-9.2-1.2-12.5-4.8-12.5-2.9 0-7.2 5.4-9.9 12.4l-1.8 4.6h-7.3c-16.7 0-47.8 5.8-60.6 11.4-5.7 2.4-16 8.6-20.7 12.4l-4.3 3.5-3.2-3.1c-3.6-3.5-5.8-4-7.6-1.8-2.1 2.5-3.3 22.1-2.2 37.6 1.4 19.7 4.4 32.7 11.1 49 1.7 4 3 7.4 3 7.6 0 .7-14-3.7-19.4-6.1-21.4-9.5-41.5-30.8-49.3-52.3-4.6-12.7-5.6-19.7-4.9-33.7.7-15.3 3.7-27.9 9.5-41.4 9.1-21.3 19.4-33.8 35.2-42.7 30.8-17.5 63.8-23.3 95.8-16.9zm36.4 75.5c-.5 5.4-.4 5.6 4.6 11.8 7.4 9.2 10.8 15.2 20.1 35.8l2.8 6.1-10.2 9.1c-30.9 27.6-57.6 42.5-91.8 51.1-24.1 6.1-21.1 6.4-25.8-2.8-7.4-14.8-11.1-31.2-12.6-55.3-.6-11.2.3-27.8 1.6-27.8.4 0 1.8 1.6 3.1 3.5s2.8 3.5 3.2 3.5c.4 0 2.9-2 5.5-4.3 9.7-9 25.3-16.2 43.2-20 11.3-2.4 32.2-4.8 39.9-4.6 7.3.2 9.1-.3 9.1-2.7 0-.8 1.4-4.3 3.2-7.7 2.9-5.7 3.2-6 3.9-3.7.3 1.4.4 5 .2 8zm287.4 12.7c-.6 7.2-3.7 16.2-9.2 27.3-7.9 15.7-15.3 25.5-31.2 41-10.4 10.2-15.7 16.2-17.8 20.2l-3 5.6-5.4-4.7-5.3-4.7 2.1-4.2c3.1-6.2 12.1-14.6 24.4-23.1 11.1-7.6 16.8-13.4 26.4-26.6 6.9-9.5 10.6-16.5 13.9-26 4.1-12.1 6-13.8 5.1-4.8zm-238.2 48.2c8.3 1.6 20.6 3.4 27.5 4.1 59.1 5.2 94.4 11.5 111.3 19.9 9.3 4.6 23 14.6 33 24 6.1 5.8 28.9 34.9 34.9 44.6 1.3 2.2 5.5 10.5 9.2 18.4 6.2 13.4 6.6 14.5 5.4 17.2-1.5 3.3-2.7 3.5-12.3 1.9-3.3-.5-12.7-1.7-21-2.5-15.7-1.7-22.1-2.8-26.8-4.7-2-.8-3.1-.8-3.9 0-1.9 1.9 4.9 5 14.9 6.8l9.4 1.7-3.8 3.9c-4.7 4.9-23.5 19.1-32.5 24.7-47 28.6-102.9 33.6-158.3 14.1-22.2-7.8-37.9-15.5-58.1-28.3-27.6-17.4-49.7-42-68.3-75.9-4.8-8.9-6.1-7.6 9.4-10.2 27.8-4.8 53.8-16.5 80.9-36.5 6.7-5 24.9-20.6 28.5-24.5 1.4-1.5 3.2-2.4 4-2.1.9.2 8.4 1.8 16.6 3.4zm-129.7 95.7 4.3 6.5-5.3-.6c-2.9-.4-8.3-1.5-12-2.6-6.8-2-8.8-3.7-8.8-7.8 0-2 .6-2.1 8.8-2.1h8.7l4.3 6.6zM549.2 478c1.3 7.8.7 9.3-4.2 10.5-2.2.5-3.5-.3-8.9-6-3.5-3.6-6-6.9-5.6-7.3.3-.4 3.9-2.8 7.8-5.3l7.2-4.6 1.3 2.8c.6 1.6 1.7 6.1 2.4 9.9z"/><path d="M288.6 176.8c-1 1.7 1.2 3 8.2 4.6 10.1 2.3 21.9 6.7 32 12.1 8.9 4.7 11.6 5.1 11 1.3-.3-2.4-11.4-8.9-21.8-12.9-12.1-4.6-28-7.4-29.4-5.1zm57.6 27.4c-1.8 1.8-1.5 2.6 1.9 7 3.7 4.6 7.2 5 7.7.7.2-1.9-.6-3.4-3.3-5.8-4-3.4-4.6-3.6-6.3-1.9zm-28.5 79.6c-3.2 3.5-1.4 7.2 3.3 7.2 3.2 0 5-1.7 5-4.7 0-4-5.5-5.6-8.3-2.5zm-19.8 17.6c-.1.3-.2 1.2-.3 1.8-.2 1.3-.5 1.3-3.6.6-.8-.2-1.9.7-2.5 1.9-1.2 2.7-3 3-4.3.7-.5-.9-1.4-1.4-2.1-1-1.5.9-1.4 3.9.1 5.4 1.7 1.7 7.3 1.5 8.8-.3.7-.8 2-1.5 3-1.5 2.3 0 5.3-3.4 4.8-5.7-.3-1.6-3.6-3.2-3.9-1.9zm-45.1 1.7c-2.8 1.6-2.3 5.7.8 7.1 4.7 2.2 8.5-3 4.9-6.6-1.9-1.8-3.3-2-5.7-.5zm79.9 62.6c-3.2 1.3-10.1 3.3-15.5 4.5-5.3 1.2-10.3 2.6-10.9 3.1-.7.5-1.3 2.5-1.3 4.4 0 7.4 9.9 12.3 24.7 12.3 8.9 0 14.3-1.7 14.3-4.6 0-1.3-.6-1.5-2.7-.8-1.6.4-7.3.8-12.8.8-12.4.1-17.8-2-18.2-6.9-.2-3-.1-3.1 6.1-4.3 9.9-1.8 22.6-6.2 23.3-7.8 1.1-2.8-1.2-3.1-7-.7zm-213-176.6c-1.3 1.5-1.6 2.9-1.2 5.1.8 3.5 3.3 4.8 5 2.5.7-1 1.7-1.7 2.4-1.7 2.5 0 2.3-3.1-.3-5.5-3.3-3-3.7-3.1-5.9-.4zM704 209.5c0 .8-.7 1.5-1.5 1.5-2.1 0-1.9 1.3.6 2.8 3 1.9 5.1 0 3.5-3.3-1.2-2.8-2.6-3.3-2.6-1zm-281.6 22.6c-.3.6 0 1.7.7 2.5 1.8 1.7 4.4.2 3.6-2-.7-1.8-3.3-2.1-4.3-.5zm-312 129.4c-.9 2.3.3 4.5 2.4 4.5 1.1 0 2.5-.7 3.2-1.5 1.6-1.9-.3-4.5-3.2-4.5-1 0-2.1.7-2.4 1.5zm34.5 42.2c-1.5 1.4-1.5 1.7.3 3.5 1.7 1.7 2 1.7 3.4.4 1.1-1.2 1.2-2 .4-3.6-1.2-2.3-1.9-2.4-4.1-.3zm111.4 66c-.7.3-1.3 1.3-1.3 2.4 0 1.4-.7 1.9-2.5 1.9-3 0-3.5 2.9-.6 3.7 1.1.3 2.1 1.5 2.3 2.7.4 2.6 3.1 2.8 3.6.2.2-1.1 1.3-2.7 2.4-3.6 1.8-1.4 1.9-1.7.4-2.9-.9-.7-1.6-1.9-1.6-2.7 0-1.6-1.1-2.3-2.7-1.7z"/></svg>