<svg aria-hidden="true" style="position: absolute; width: 0; height: 0; overflow: hidden;" version="1.1" xmlns="http://www.w3.org/2000/svg" xmlns:xlink="http://www.w3.org/1999/xlink">
<defs>
<symbol id="heart" viewBox="0 0 34 32">
<path fill="#ff6b08" style="fill: var(--color1, #ff6b08)" d="M17.231 31.705l-2.412-2.412c-8.96-7.926-14.818-13.268-14.818-19.815 0-5.342 4.135-9.477 9.477-9.477 2.929 0 5.858 1.378 7.754 3.618 1.895-2.24 4.825-3.618 7.754-3.618 5.342 0 9.477 4.135 9.477 9.477 0 6.548-5.858 11.889-14.818 19.815l-2.412 2.412z"></path>
</symbol>
<symbol id="logo" viewBox="0 0 32 32">
<path fill="none" stroke="#fff" style="stroke: var(--color2, #fff)" stroke-linejoin="round" stroke-linecap="round" stroke-miterlimit="4" stroke-width="2.6667" d="M26.427 2.667h-20.853c-1.605 0-2.907 1.301-2.907 2.907v0 20.853c0 1.605 1.301 2.907 2.907 2.907v0h20.853c1.605 0 2.907-1.301 2.907-2.907v0-20.853c0-1.605-1.301-2.907-2.907-2.907v0zM9.333 2.667v26.667M22.667 2.667v26.667M2.667 16h26.667M2.667 9.333h6.667M2.667 22.667h6.667M22.667 22.667h6.667M22.667 9.333h6.667"></path>
</symbol>
<symbol id="search" viewBox="0 0 32 32">
<path fill="none" stroke="#fff" style="stroke: var(--color2, #fff)" stroke-linejoin="round" stroke-linecap="round" stroke-miterlimit="4" stroke-width="2.6667" d="M14.667 25.333c5.891 0 10.667-4.776 10.667-10.667s-4.776-10.667-10.667-10.667v0c-5.891 0-10.667 4.776-10.667 10.667s4.776 10.667 10.667 10.667v0zM28 28l-5.8-5.8"></path>
</symbol>

<symbol id="icon-close-btn" viewBox="0 0 32 32"><path d="m26.667 7.303-1.97-1.97-7.808 7.808-7.808-7.808-1.97 1.97 7.808 7.808-7.808 7.808 1.97 1.97 7.808-7.808 7.808 7.808 1.97-1.97-7.808-7.808 7.808-7.808z"/></symbol>
<symbol id="google" viewBox="0 0 49 49">
<path fill="#FFC107" d="M43.611 20.083H42V20H24v8h11.303c-1.649 4.657-6.08 8-11.303 8-6.627 0-12-5.373-12-12s5.373-12 12-12c3.059 0 5.842 1.154 7.961 3.039l5.657-5.657C34.046 6.053 29.268 4 24 4 12.955 4 4 12.955 4 24s8.955 20 20 20 20-8.955 20-20c0-1.341-.138-2.65-.389-3.917z"/><path fill="#FF3D00" d="m6.306 14.691 6.571 4.819C14.655 15.108 18.961 12 24 12c3.059 0 5.842 1.154 7.961 3.039l5.657-5.657C34.046 6.053 29.268 4 24 4 16.318 4 9.656 8.337 6.306 14.691z"/><path fill="#4CAF50" d="M24 44c5.166 0 9.86-1.977 13.409-5.192l-6.19-5.238A11.91 11.91 0 0 1 24 36c-5.202 0-9.619-3.317-11.283-7.946l-6.522 5.025C9.505 39.556 16.227 44 24 44z"/><path fill="#1976D2" d="M43.611 20.083H42V20H24v8h11.303a12.04 12.04 0 0 1-4.087 5.571l.003-.002 6.19 5.238C36.971 39.205 44 34 44 24c0-1.341-.138-2.65-.389-3.917z"/>
</symbol>
<symbol id="icon-enter" viewBox="0 0 32 32">
<path d="M12 16h-10v-4h10v-4l6 6-6 6zM32 0v26l-12 6v-6h-12v-8h2v6h10v-18l8-4h-18v8h-2v-10z"></path>

<symbol id="close" viewBox="0 0 32 32">
    <path d="M32 3.223l-3.223-3.223-12.777 12.777-12.777-12.777-3.223 3.223 12.777 12.777-12.777 12.777 3.223 3.223 12.777-12.777 12.777 12.777 3.223-3.223-12.777-12.777 12.777-12.777z"></path>

</symbol>
<symbol id="icon-arrow-right" viewBox="0 0 32 32">
<path stroke-linejoin="round" stroke-linecap="round" stroke-miterlimit="4" stroke-width="2.6667" d="M25.333 16h-18.667"></path>
<path stroke-linejoin="round" stroke-linecap="round" stroke-miterlimit="4" stroke-width="2.6667" d="M16 25.334l-9.333-9.333 9.333-9.333"></path>
</symbol>
<symbol id="icon-arrow-left" viewBox="0 0 32 32">
<path stroke-linejoin="round" stroke-linecap="round" stroke-miterlimit="4" stroke-width="2.6667" d="M6.667 16h18.667"></path>
<path stroke-linejoin="round" stroke-linecap="round" stroke-miterlimit="4" stroke-width="2.6667" d="M16 25.334l9.333-9.333-9.333-9.333"></path>
</symbol>
<symbol id="sun" viewBox="0 0 512 512">
<g>
                    <circle style="fill:#FFD347;" cx="255.997" cy="255.997" r="144.824" />
                    <path style="fill:#FFD347;" d="M256,56.849c-4.273,0-7.737-3.463-7.737-7.737V7.737C248.263,3.463,251.727,0,256,0
            		s7.737,3.463,7.737,7.737v41.376C263.737,53.386,260.273,56.849,256,56.849z" />
                    <path style="fill:#FFD347;" d="M152.563,84.568c-2.674,0-5.274-1.387-6.707-3.869l-20.687-35.832
            		c-2.136-3.7-0.869-8.432,2.832-10.569c3.701-2.134,8.432-0.87,10.569,2.832l20.687,35.832c2.136,3.7,0.869,8.432-2.832,10.569
            		C155.206,84.234,153.876,84.568,152.563,84.568z" />
                    <path style="fill:#FFD347;" d="M76.823,160.294c-1.312,0-2.643-0.334-3.861-1.038L37.13,138.569
            		c-3.7-2.136-4.968-6.868-2.832-10.569c2.136-3.701,6.868-4.967,10.569-2.832l35.832,20.687c3.7,2.136,4.968,6.868,2.832,10.569
            		C82.097,158.907,79.497,160.294,76.823,160.294z" />
                    <path style="fill:#FFD347;" d="M49.112,263.737H7.737C3.464,263.737,0,260.274,0,256s3.464-7.737,7.737-7.737h41.376
            		c4.273,0,7.737,3.463,7.737,7.737S53.385,263.737,49.112,263.737z" />
                    <path style="fill:#FFD347;" d="M41.005,387.869c-2.674,0-5.274-1.387-6.707-3.869c-2.136-3.7-0.869-8.432,2.832-10.569
            		l35.832-20.687c3.7-2.134,8.432-0.87,10.569,2.832c2.136,3.7,0.869,8.432-2.832,10.569l-35.832,20.687
            		C43.648,387.535,42.317,387.869,41.005,387.869z" />
                    <path style="fill:#FFD347;" d="M131.862,478.74c-1.312,0-2.643-0.334-3.861-1.038c-3.7-2.136-4.968-6.868-2.832-10.569
            		l20.687-35.832c2.136-3.701,6.868-4.967,10.569-2.832c3.7,2.136,4.968,6.868,2.832,10.569l-20.687,35.832
            		C137.136,477.352,134.536,478.74,131.862,478.74z" />
                    <path style="fill:#FFD347;" d="M256,512c-4.273,0-7.737-3.463-7.737-7.737v-41.376c0-4.274,3.464-7.737,7.737-7.737
            		s7.737,3.463,7.737,7.737v41.376C263.737,508.537,260.273,512,256,512z" />
                    <path style="fill:#FFD347;" d="M380.138,478.74c-2.674,0-5.274-1.387-6.707-3.869l-20.687-35.832
            		c-2.136-3.7-0.869-8.432,2.832-10.569c3.7-2.134,8.432-0.87,10.569,2.832l20.687,35.832c2.136,3.7,0.869,8.432-2.832,10.569
            		C382.781,478.406,381.451,478.74,380.138,478.74z" />
                    <path style="fill:#FFD347;" d="M470.995,387.869c-1.312,0-2.643-0.334-3.861-1.038l-35.832-20.687
            		c-3.7-2.136-4.968-6.868-2.832-10.569c2.136-3.701,6.868-4.967,10.569-2.832l35.832,20.687c3.7,2.136,4.968,6.868,2.832,10.569
            		C476.269,386.481,473.669,387.869,470.995,387.869z" />
                    <path style="fill:#FFD347;" d="M504.263,263.737h-41.376c-4.273,0-7.737-3.463-7.737-7.737s3.464-7.737,7.737-7.737h41.376
            		c4.273,0,7.737,3.463,7.737,7.737S508.536,263.737,504.263,263.737z" />
                    <path style="fill:#FFD347;" d="M435.177,160.294c-2.674,0-5.274-1.387-6.707-3.869c-2.136-3.7-0.869-8.432,2.832-10.569
            		l35.832-20.687c3.7-2.134,8.432-0.87,10.569,2.832c2.136,3.7,0.869,8.432-2.832,10.569l-35.832,20.687
            		C437.82,159.96,436.489,160.294,435.177,160.294z" />
                    <path style="fill:#FFD347;" d="M359.437,84.568c-1.312,0-2.643-0.334-3.861-1.038c-3.7-2.136-4.968-6.868-2.832-10.569
            		l20.687-35.832c2.136-3.701,6.868-4.967,10.569-2.832c3.7,2.136,4.968,6.868,2.832,10.569l-20.687,35.832
            		C364.711,83.181,362.11,84.568,359.437,84.568z" />
                </g>
                <path style="fill:#FFBE31;" d="M256,111.18c-5.242,0-10.418,0.286-15.516,0.828c72.685,7.743,129.303,69.252,129.303,143.991
            	s-56.619,136.249-129.303,143.992c5.098,0.544,10.273,0.828,15.516,0.828c79.982,0,144.82-64.838,144.82-144.82
            	S335.983,111.18,256,111.18z" />
</symbol>
<symbol id="moon" viewBox="0 0 512 512">
<path style="fill:#FFD93B;" d="M146.88,375.528c126.272,0,228.624-102.368,228.624-228.64c0-55.952-20.16-107.136-53.52-146.88
                    	C425.056,33.096,499.696,129.64,499.696,243.704c0,141.392-114.608,256-256,256c-114.064,0-210.608-74.64-243.696-177.712
                    	C39.744,355.368,90.944,375.528,146.88,375.528z" />
                <path style="fill:#F4C534;" d="M401.92,42.776c34.24,43.504,54.816,98.272,54.816,157.952c0,141.392-114.608,256-256,256
                    	c-59.68,0-114.448-20.576-157.952-54.816c46.848,59.472,119.344,97.792,200.928,97.792c141.392,0,256-114.608,256-256
                    	C499.712,162.12,461.392,89.64,401.92,42.776z" />
                <g>
                    <polygon style="fill:#FFD83B;" points="128.128,99.944 154.496,153.4 213.472,161.96 170.8,203.56 180.864,262.296 
                    		128.128,234.568 75.376,262.296 85.44,203.56 42.768,161.96 101.744,153.4 	" />
                    <polygon style="fill:#FFD83B;" points="276.864,82.84 290.528,110.552 321.104,114.984 298.976,136.552 304.208,166.984 
                    		276.864,152.616 249.52,166.984 254.752,136.552 232.624,114.984 263.2,110.552 	" />
                </g>
</symbol>
</defs>
</svg>
